<svg xmlns="http://www.w3.org/2000/svg" xmlns:xlink="http://www.w3.org/1999/xlink"><symbol fill="none" viewBox="0 0 16 14" id="alert"><path d="M0 0h16v14H0z"/><path d="M8 10V8" stroke="#FB722A" stroke-width="2" stroke-linecap="round"/><path d="M1.723 13L8 2.016 14.277 13H1.723z" stroke="#FB722A" stroke-width="2"/></symbol><symbol fill="none" viewBox="0 0 49 10" id="arrow"><path fill-rule="evenodd" clip-rule="evenodd" d="M44.252 9.659l3.5-4L48.33 5l-.577-.659-3.5-4-1.505 1.318L44.797 4H0v2h44.796l-2.049 2.341 1.505 1.318z" fill="currentColor"/></symbol><symbol fill="none" viewBox="0 0 32 22" id="change"><path d="M1 1h30v20H1z"/><path d="M1 8h30L21 1m10 13H1l10 7" stroke="currentColor" stroke-width="2" stroke-linecap="round" stroke-linejoin="round"/></symbol><symbol viewBox="0 0 176 40" fill="none" id="logo"><path fill-rule="evenodd" clip-rule="evenodd" d="M121.674 26.76c.335.357.692.68 1.082.97 1.596 1.195 3.436 1.585 5.378 1.228 1.885-.346 3.648-1.36 5.098-2.6a15.058 15.058 0 0 0 2.231-2.387c1.205-1.606 2.12-3.425 3.012-5.22l.034-.068v8.022c-.179 1.015-.937 1.54-1.763 1.617v.268h8.902v-.268c-.836-.067-1.584-.591-1.762-1.617v-.067l5.935-11.792v11.859c-.179 1.015-.937 1.54-1.763 1.617v.268h8.892v-.268c-.826-.067-1.585-.591-1.763-1.617v-12.64c.178-1.015.937-1.54 1.763-1.618v-.268h-8.892v.268c.636.056 1.239.38 1.551.993l-5.723 11.368V14.065c.178-1.015.937-1.54 1.762-1.618v-.268h-8.891v.268c.837.067 1.584.591 1.763 1.618v3.715c-.134.268-.268.524-.402.792-.892 1.763-1.785 3.57-2.978 5.154a14.848 14.848 0 0 1-2.176 2.332c-1.383 1.193-3.09 2.175-4.897 2.51-1.83.334-3.57-.045-5.065-1.16a8.007 8.007 0 0 1-1.194-1.105l.413-1.55c.859.658 1.696.97 2.666 1.137 3.336.558 7.319-1.405 9.282-4.395 1.707-2.6 1.807-5.556.558-7.252-1.272-1.707-3.905-2.465-6.716-1.606-.904.279-1.774.758-2.711 1.25-.123-.558 0-1.105.58-1.15h.145v-.435h-5.244v.435h.525c.993 0 1.718.513 1.44 1.551l-3.983 14.904c-.146.848-1.618 1.395-2.32 1.361h-.391l-.157.58h6.95l.157-.58h-.313c-1.216.067-1.907-.468-1.684-1.271l.67-2.522zm11.313-7.708c-.358-.748-.804-1.462-1.362-2.053-.691-.736-1.55-1.272-2.554-1.462-1.26-.234-2.376.045-3.425.748-.558.38-1.06.859-1.529 1.372l.112-.402c1.372-2.186 3.213-4.529 6.114-4.071 3.112.502 3.39 3.357 2.644 5.868zm-9.104-.491c.591-.714 1.25-1.417 1.997-1.93.948-.647 1.975-.904 3.113-.692.914.167 1.695.67 2.331 1.339.625.658 1.116 1.495 1.473 2.354a9.676 9.676 0 0 1-.692 1.495c-1.472 2.543-3.893 4.083-6.448 4.016-1.16-.034-2.633-1.462-2.8-2.745l1.026-3.837zM64.02 26.939h11.825v1.651H64.02v-1.651zm94.949 0h16.02v1.651h-16.02v-1.651zm3.436-.748h-3.436v-.223c.758-.2 1.227-.569 1.227-1.372v-10.71c0-.803-.469-1.16-1.227-1.372v-.223h6.872v.223c-.759.201-1.227.57-1.227 1.372V22.8l4.685-9.315c-.134-.525-.558-.792-1.171-.96v-.223H175v.223c-.759.201-1.227.57-1.227 1.372v10.71c0 .803.468 1.16 1.227 1.372v.224h-6.872v-.224c.759-.2 1.227-.569 1.227-1.372v-9.405l-4.741 9.416c.011.793.468 1.15 1.227 1.35v.223h-3.436zm-50.626-.178c-1.919 1.238-3.124 1.941-3.615 2.142a6.473 6.473 0 0 1-2.342.424c-1.295 0-2.366-.368-3.191-1.105-.837-.736-1.25-1.707-1.25-2.9 0-.759.201-1.417.614-1.975.558-.77 1.529-1.484 2.9-2.175 1.384-.68 3.682-1.506 6.884-2.477v-.613c0-1.551-.29-2.611-.881-3.191-.592-.569-1.45-.86-2.589-.86-.859 0-1.54.19-2.041.581-.513.38-.77.826-.77 1.316l.045.982c0 .524-.157.926-.48 1.205-.324.279-.736.424-1.25.424-.513 0-.914-.145-1.238-.435-.323-.29-.48-.692-.48-1.205 0-.97.603-1.863 1.797-2.677 1.193-.815 2.878-1.228 5.042-1.228 1.651 0 3.012.235 4.083.692.803.357 1.395.904 1.774 1.651.245.491.357 1.473.357 2.979v5.277c0 1.483.033 2.387.1 2.722.067.334.179.558.335.669a.941.941 0 0 0 .547.178 1.3 1.3 0 0 0 .569-.122c.29-.145.836-.558 1.65-1.239v.949c-1.516 1.696-2.978 2.543-4.361 2.543-.658 0-1.194-.19-1.584-.58-.413-.357-.614-1.026-.625-1.952zm0-1.093v-5.924c-2.053.68-3.38 1.16-3.972 1.439-1.082.502-1.84 1.015-2.309 1.562-.469.546-.692 1.138-.692 1.785 0 .814.29 1.484.882 2.03.58.536 1.26.803 2.019.803 1.026 0 2.387-.569 4.072-1.695zm-33.513 3.492h4.686l5.622-12.205 5.612 12.205h6.638L91.888 9h-4.686l-.981 2.12-7.955 17.292zm-2.733-2.421h-2.477v-.67c-.926.435-2.019.68-3.201.68-2.633 0-5.857-1.17-5.857-4.328 0-3.18 3.201-4.384 5.857-4.384 1.182 0 2.275.245 3.201.68v-2.41c-.01-1.238-1.606-1.55-2.666-1.572-1.696-.034-2.89.468-4.139 1.461v-2.42c2.042-1.194 9.193-1.64 9.27 2.978v9.985h.012zm-2.477-2.79v-3.1c-.59-.76-1.595-1.261-2.744-1.261-1.818 0-3.291.859-3.291 2.81 0 1.953 1.473 2.812 3.291 2.812 1.15 0 2.164-.502 2.744-1.26zM53.132 28.58h-2.12V28h.58c.725.033 1.54-.614 1.54-1.361V13.117h-1.339c-1.885.145-2.9.992-3.079 2.789v.624H48v-4.26h13.923v4.261h-.714v-.624c-.179-1.785-1.194-2.644-3.068-2.778h-1.339v13.52c0 .748.814 1.395 1.54 1.362h.58v.58h-5.79v-.011zM24.22 14.63l.008-.101-14.08-3.107L6.608 8l22.812 5.034C28.004 27.351 40 29.75 40 29.75c-12.429-1.927-13.176-13.766-13.176-13.766l-2.675-.078c0-.438.034-.843.07-1.276zM0 10.163l23.442 5.153c-1.385 14.033 9.728 16.922 10.81 17.203h.002a.608.608 0 0 1 .082.024c-12.782-2.006-13.53-14.16-13.53-14.16L8.063 17.99 0 10.163zm9.164 8.89l10.856.392s.275 1.338.668 2.911h-6.332l-5.192-3.304zm6.45 4.09l2.518 1.573h3.264a7.662 7.662 0 0 0-.472-1.573h-5.31zm8.496-6.333c0 .984.079 1.928.197 2.793h2.438c-.393-1.18-.668-2.714-.668-2.714l-1.967-.079zm2.922 3.863c.102.317.222.689.343 1.29h-2.557a18.36 18.36 0 0 1-.393-1.574h2.517c.028.093.058.186.09.284z" fill="currentColor"/></symbol><symbol viewBox="0 0 64 41" fill="none" id="logo-img"><path fill-rule="evenodd" clip-rule="evenodd" d="M38.751 11.408l.014-.162-22.529-4.971L10.572.8l36.5 8.055C44.806 31.762 64 35.6 64 35.6c-19.886-3.083-21.082-22.025-21.082-22.025l-4.279-.126c0-.7.054-1.348.112-2.04zM0 4.261l37.506 8.244C35.291 34.959 53.073 39.581 54.803 40.03h.001c.088.023.134.035.134.038C34.486 36.86 33.29 17.414 33.29 17.414l-20.39-.63L0 4.261zm14.663 14.222l17.368.63s.44 2.14 1.07 4.656H22.97l-8.307-5.286zm10.32 6.545l4.028 2.517h5.223a12.393 12.393 0 0 0-.755-2.517h-8.496zm13.593-10.132c0 1.574.126 3.084.315 4.468h3.901c-.629-1.888-1.07-4.342-1.07-4.342l-3.146-.126zm4.675 6.18c.164.508.356 1.103.548 2.064h-4.09c-.252-.818-.44-1.636-.63-2.517h4.028c.045.148.093.297.144.454z" fill="currentColor"/></symbol><symbol fill="none" viewBox="0 0 80 35" id="rzd"><path d="M0 0h80v34.872H0z"/><path fill-rule="evenodd" clip-rule="evenodd" d="M67.502 0c2.79 0 6.955 0 9.744 2.733C80 5.431 80 9.444 80 10.897v4.36c0 1.452 0 5.43-2.79 8.164-2.753 2.733-6.919 2.733-9.708 2.733h-4.801c-2.401 0-4.166 0-5.649-.727-1.483-.726-2.612-2.18-3.707-3.632l-1.13-1.453-.014-.019c-.77-1.028-1.362-1.821-1.362-2.887 0-1.107.635-1.937 1.376-2.906l4.449-5.812h11.12l-7.202 9.41c-.564.726-1.2 1.626-.74 2.629.458 1.003 1.659 1.003 2.576 1.003h5.367c.741 0 1.836 0 2.577-.726.741-.727.741-1.8.741-2.526V7.611c0-.727 0-1.799-.741-2.526-.741-.726-1.836-.726-2.577-.726H56.664v-1.28c0-.727 0-1.626.741-2.353C58.147 0 59.065 0 59.805 0h7.697zM33.61 17.436c0-1.069-.56-1.815-1.297-2.8l-.08-.106-1.13-1.453c-1.094-1.453-2.224-2.906-3.707-3.633-1.483-.726-3.248-.726-5.648-.726H3.142c-.741 0-1.66 0-2.4.726C0 10.171 0 11.07 0 11.797v1.28h4.448v21.795h8.897V13.077h8.72c.918 0 2.119 0 2.578 1.003.459 1.003-.177 1.903-.742 2.63l-7.237 9.41h11.12l4.449-5.813c.741-.968 1.377-1.799 1.377-2.871zm9.744-8.718L30.009 26.119h11.12L54.44 8.718H43.355z" fill="#DF3131"/></symbol><symbol fill="none" viewBox="0 0 80 80" id="rzd-inv"><path d="M0 0h80v80H0z"/><path fill="#DF3131" d="M0 0h80v80H0z"/><path d="M11 28h58v25H11z"/><path fill-rule="evenodd" clip-rule="evenodd" d="M59.939 28c2.022 0 5.042 0 7.065 1.96C69 31.893 69 34.77 69 35.811v3.126c0 1.041 0 3.893-2.022 5.853-1.997 1.959-5.017 1.959-7.039 1.959h-3.481c-1.74 0-3.02 0-4.095-.52-1.075-.522-1.894-1.563-2.688-2.605l-.819-1.042-.01-.013c-.558-.737-.988-1.306-.988-2.07 0-.794.46-1.389.998-2.083l3.225-4.167h8.063l-5.222 6.746c-.41.52-.87 1.166-.537 1.885.333.72 1.203.72 1.868.72h3.89c.538 0 1.332 0 1.87-.522.537-.52.537-1.29.537-1.81v-7.813c0-.52 0-1.29-.538-1.81-.537-.521-1.33-.521-1.868-.521H52.08v-.918c0-.52 0-1.165.538-1.686.537-.521 1.203-.521 1.74-.521h5.58zM35.367 40.5c0-.766-.405-1.301-.94-2.007l-.058-.076-.82-1.042c-.793-1.042-1.612-2.083-2.687-2.604-1.075-.521-2.354-.521-4.095-.521H13.278c-.537 0-1.203 0-1.74.52C11 35.293 11 35.937 11 36.458v.918h3.225V53h6.45V37.375h6.322c.666 0 1.536 0 1.869.72.333.718-.128 1.363-.538 1.884l-5.247 6.746h8.063l3.225-4.166c.537-.695.998-1.29.998-2.059zm7.065-6.25l-9.675 12.475h8.062l9.65-12.475h-8.037z" fill="#fff"/></symbol></svg>