<svg viewBox="0 0 64 41" fill="none" xmlns="http://www.w3.org/2000/svg"><path fill-rule="evenodd" clip-rule="evenodd" d="M38.751 11.408l.014-.162-22.529-4.971L10.572.8l36.5 8.055C44.806 31.762 64 35.6 64 35.6c-19.886-3.083-21.082-22.025-21.082-22.025l-4.279-.126c0-.7.054-1.348.112-2.04zM0 4.261l37.506 8.244C35.291 34.959 53.073 39.581 54.803 40.03h.001c.088.023.134.035.134.038C34.486 36.86 33.29 17.414 33.29 17.414l-20.39-.63L0 4.261zm14.663 14.222l17.368.63s.44 2.14 1.07 4.656H22.97l-8.307-5.286zm10.32 6.545l4.028 2.517h5.223a12.393 12.393 0 0 0-.755-2.517h-8.496zm13.593-10.132c0 1.574.126 3.084.315 4.468h3.901c-.629-1.888-1.07-4.342-1.07-4.342l-3.146-.126zm4.675 6.18c.164.508.356 1.103.548 2.064h-4.09c-.252-.818-.44-1.636-.63-2.517h4.028c.045.148.093.297.144.454z" fill="currentColor"/></svg>