<svg width="80" height="80" fill="none" xmlns="http://www.w3.org/2000/svg"><path fill="none" d="M0 0h80v80H0z"/><path fill="#DF3131" d="M0 0h80v80H0z"/><path fill="none" d="M11 28h58v25H11z"/><path fill-rule="evenodd" clip-rule="evenodd" d="M59.939 28c2.022 0 5.042 0 7.065 1.96C69 31.893 69 34.77 69 35.811v3.126c0 1.041 0 3.893-2.022 5.853-1.997 1.959-5.017 1.959-7.039 1.959h-3.481c-1.74 0-3.02 0-4.095-.52-1.075-.522-1.894-1.563-2.688-2.605l-.819-1.042-.01-.013c-.558-.737-.988-1.306-.988-2.07 0-.794.46-1.389.998-2.083l3.225-4.167h8.063l-5.222 6.746c-.41.52-.87 1.166-.537 1.885.333.72 1.203.72 1.868.72h3.89c.538 0 1.332 0 1.87-.522.537-.52.537-1.29.537-1.81v-7.813c0-.52 0-1.29-.538-1.81-.537-.521-1.33-.521-1.868-.521H52.08v-.918c0-.52 0-1.165.538-1.686.537-.521 1.203-.521 1.74-.521h5.58zM35.367 40.5c0-.766-.405-1.301-.94-2.007l-.058-.076-.82-1.042c-.793-1.042-1.612-2.083-2.687-2.604-1.075-.521-2.354-.521-4.095-.521H13.278c-.537 0-1.203 0-1.74.52C11 35.293 11 35.937 11 36.458v.918h3.225V53h6.45V37.375h6.322c.666 0 1.536 0 1.869.72.333.718-.128 1.363-.538 1.884l-5.247 6.746h8.063l3.225-4.166c.537-.695.998-1.29.998-2.059zm7.065-6.25l-9.675 12.475h8.062l9.65-12.475h-8.037z" fill="#fff"/></svg>