<svg width="80" height="35" fill="none" xmlns="http://www.w3.org/2000/svg"><path fill="none" d="M0 0h80v34.872H0z"/><path fill-rule="evenodd" clip-rule="evenodd" d="M67.502 0c2.79 0 6.955 0 9.744 2.733C80 5.431 80 9.444 80 10.897v4.36c0 1.452 0 5.43-2.79 8.164-2.753 2.733-6.919 2.733-9.708 2.733h-4.801c-2.401 0-4.166 0-5.649-.727-1.483-.726-2.612-2.18-3.707-3.632l-1.13-1.453-.014-.019c-.77-1.028-1.362-1.821-1.362-2.887 0-1.107.635-1.937 1.376-2.906l4.449-5.812h11.12l-7.202 9.41c-.564.726-1.2 1.626-.74 2.629.458 1.003 1.659 1.003 2.576 1.003h5.367c.741 0 1.836 0 2.577-.726.741-.727.741-1.8.741-2.526V7.611c0-.727 0-1.799-.741-2.526-.741-.726-1.836-.726-2.577-.726H56.664v-1.28c0-.727 0-1.626.741-2.353C58.147 0 59.065 0 59.805 0h7.697zM33.61 17.436c0-1.069-.56-1.815-1.297-2.8l-.08-.106-1.13-1.453c-1.094-1.453-2.224-2.906-3.707-3.633-1.483-.726-3.248-.726-5.648-.726H3.142c-.741 0-1.66 0-2.4.726C0 10.171 0 11.07 0 11.797v1.28h4.448v21.795h8.897V13.077h8.72c.918 0 2.119 0 2.578 1.003.459 1.003-.177 1.903-.742 2.63l-7.237 9.41h11.12l4.449-5.813c.741-.968 1.377-1.799 1.377-2.871zm9.744-8.718L30.009 26.119h11.12L54.44 8.718H43.355z" fill="#DF3131"/></svg>