<svg xmlns="http://www.w3.org/2000/svg" width="36" height="39" viewBox="860.44482 516.42871 36 39"><path fill="#0f4979" d="M860.445 516.429h36v39h-36z"/><path fill="#FCFCFC" d="M888.158 535.361l1.456-3.434-3.35-1.643-.632-3.677-3.707.43-2.52-2.752-2.884 2.365-3.607-.953-1.15 3.55-3.55 1.15.953 3.607-2.365 2.886 2.752 2.52-.43 3.705 3.677.632 1.643 3.35 3.434-1.456 3.194 1.93 2.101-3.082 3.73-.102.102-3.73 3.082-2.102-1.93-3.194zm-10.434-4.64h1.777v2.795c0 .912-.177 2.506-.533 4.785h-.71c-.356-2.279-.534-3.871-.534-4.778v-2.802zm1.733 10c-.216.218-.479.328-.79.328s-.574-.11-.792-.328-.329-.483-.329-.793c0-.31.11-.574.329-.793s.482-.328.792-.328.574.109.79.328c.216.219.325.483.325.793 0 .31-.109.574-.325.793z"/></svg>